PathFileType	4	(X/Y/Z)	RBDS016static.trc
DataRate	CameraRate	NumFrames	NumMarkers	Units	OrigDataRate	OrigDataStartFrame	OrigNumFrames
150.000000	150.000000	4	48	mm	150.000000	112	150
Frame#	Time	L.Ankle			L.Ankle.Medial			L.ASIS			L.GTR			L.Heel.Bottom			L.Heel.Lateral			L.Heel.Top			L.HF			L.Iliac.Crest			L.Knee			L.Knee.Medial			L.MT1			L.MT2			L.MT5			L.PSIS			L.Shank.Bottom.Lateral			L.Shank.Bottom.Medial			L.Shank.Top.Lateral			L.Shank.Top.Medial			L.Thigh.Bottom.Lateral			L.Thigh.Bottom.Medial			L.Thigh.Top.Lateral			L.Thigh.Top.Medial			L.TT			R.Ankle			R.Ankle.Medial			R.ASIS			R.GTR			R.Heel.Bottom			R.Heel.Lateral			R.Heel.Top			R.HF			R.Iliac.Crest			R.Knee			R.Knee.Medial			R.MT1			R.MT2			R.MT5			R.PSIS			R.Shank.Bottom.Lateral			R.Shank.Bottom.Medial			R.Shank.Top.Lateral			R.Shank.Top.Medial			R.Thigh.Bottom.Lateral			R.Thigh.Bottom.Medial			R.Thigh.Top.Lateral			R.Thigh.Top.Medial			R.TT			
		X1	Y1	Z1	X2	Y2	Z2	X3	Y3	Z3	X4	Y4	Z4	X5	Y5	Z5	X6	Y6	Z6	X7	Y7	Z7	X8	Y8	Z8	X9	Y9	Z9	X10	Y10	Z10	X11	Y11	Z11	X12	Y12	Z12	X13	Y13	Z13	X14	Y14	Z14	X15	Y15	Z15	X16	Y16	Z16	X17	Y17	Z17	X18	Y18	Z18	X19	Y19	Z19	X20	Y20	Z20	X21	Y21	Z21	X22	Y22	Z22	X23	Y23	Z23	X24	Y24	Z24	X25	Y25	Z25	X26	Y26	Z26	X27	Y27	Z27	X28	Y28	Z28	X29	Y29	Z29	X30	Y30	Z30	X31	Y31	Z31	X32	Y32	Z32	X33	Y33	Z33	X34	Y34	Z34	X35	Y35	Z35	X36	Y36	Z36	X37	Y37	Z37	X38	Y38	Z38	X39	Y39	Z39	X40	Y40	Z40	X41	Y41	Z41	X42	Y42	Z42	X43	Y43	Z43	X44	Y44	Z44	X45	Y45	Z45	X46	Y46	Z46	X47	Y47	Z47	X48	Y48	Z48	

113	0.7466666666666667	722.80078125	98.39358520507813	1045.18359375	732.1788940429688	111.229248046875	1132.4013671875	860.2499389648438	945.2702026367188	1126.305053710938	783.7144165039063	881.9552612304688	1054.922729492188	645.0134887695313	40.45190048217773	1088.123657226563	669.0700073242188	62.33454895019531	1047.286254882813	654.3710327148438	88.03071594238281	1089.056030273438	754.6033325195313	444.9072570800781	1027.921264648438	774.5551147460938	1007.337524414063	1065.256225585938	758.0889282226563	504.1128234863281	1032.84375	732.1029663085938	481.1874084472656	1164.877563476563	861.1892700195313	60.56775665283203	1127.399169921875	865.572998046875	70.37744903564453	1089.03076171875	828.0917358398438	52.86796569824219	1021.77099609375	663.8372802734375	966.9784545898438	1184.252319335938	702.7259521484375	175.2969818115234	1039.615600585938	674.650634765625	178.8793029785156	1087.723754882813	695.6314086914063	255.0830688476563	1030.121459960938	669.836669921875	259.2951965332031	1077.792114257813	746.6948852539063	586.7655639648438	1030.175537109375	684.8565673828125	592.7870483398438	1069.12548828125	755.623291015625	696.3616943359375	1029.450561523438	697.1810302734375	701.6492309570313	1068.24609375	802.7313232421875	428.3121948242188	1091.743408203125	714.6387939453125	101.1220016479492	1410.847534179688	737.6380004882813	122.5190582275391	1325.963745117188	844.959716796875	949.59912109375	1358.603759765625	765.5989379882813	887.8504638671875	1419.796264648438	639.9363403320313	41.45181274414063	1366.145751953125	668.7742309570313	64.88088226318359	1406.4296875	652.2196044921875	92.26443481445313	1363.42431640625	742.3807983398438	450.1632385253906	1429.870727539063	760.323486328125	1003.681274414063	1404.227416992188	742.857666015625	513.4640502929688	1424.816772460938	730.3970336914063	485.7512512207031	1295.301025390625	855.4171142578125	61.30728149414063	1329.255249023438	862.5772094726563	70.74111938476563	1371.74072265625	824.7628784179688	48.60202407836914	1438.97119140625	658.5545654296875	967.336181640625	1285.873413085938	710.9331665039063	170.3530578613281	1420.183959960938	670.9677734375	175.9240875244141	1388.250732421875	707.7088623046875	254.0376892089844	1435.972778320313	666.6285400390625	255.6339111328125	1401.9677734375	728.05712890625	598.3062744140625	1432.737426757813	673.1731567382813	599.7020263671875	1384.826904296875	725.4423217773438	708.9888916015625	1435.68212890625	675.208740234375	709.4796752929688	1388.904052734375	792.1340942382813	422.8855590820313	1375.538696289063	
114	0.7533333333333334	722.8031005859375	98.38652801513672	1045.177368164063	732.1945190429688	111.2305526733398	1132.40673828125	860.2579956054688	945.2573852539063	1126.294677734375	783.7350463867188	881.9603881835938	1054.916015625	645.003662109375	40.45122528076172	1088.127685546875	669.074462890625	62.32137680053711	1047.29443359375	654.3707885742188	88.03101348876953	1089.031127929688	754.6156616210938	444.900634765625	1027.916259765625	774.5599365234375	1007.340393066406	1065.253784179688	758.0934448242188	504.115966796875	1032.836791992188	732.11865234375	481.1830749511719	1164.8779296875	861.1897583007813	60.56246185302734	1127.398681640625	865.5863037109375	70.38056945800781	1089.043212890625	828.1021728515625	52.86577224731445	1021.770690917969	663.8471069335938	966.9656982421875	1184.252685546875	702.7329711914063	175.2955780029297	1039.624755859375	674.66064453125	178.8734283447266	1087.721557617188	695.6436767578125	255.0797882080078	1030.115112304688	669.8424072265625	259.2972412109375	1077.7900390625	746.7404174804688	586.7583618164063	1030.18017578125	684.8778076171875	592.79541015625	1069.119018554688	755.65771484375	696.3593139648438	1029.444213867188	697.2018432617188	701.6492309570313	1068.232543945313	802.7572631835938	428.3214721679688	1091.738891601563	714.6378173828125	101.1177520751953	1410.855102539063	737.6331787109375	122.5240707397461	1325.979858398438	844.9794311523438	949.5855712890625	1358.598266601563	765.634765625	887.851318359375	1419.807861328125	639.9384155273438	41.46228790283203	1366.143188476563	668.775634765625	64.88210296630859	1406.438842773438	652.2299194335938	92.2633056640625	1363.43212890625	742.4058837890625	450.1622314453125	1429.870239257813	760.3175659179688	1003.65625	1404.219360351563	742.8953857421875	513.4580078125	1424.809936523438	730.4163208007813	485.7452392578125	1295.2998046875	855.4109497070313	61.30971908569336	1329.254516601563	862.5848999023438	70.73397064208984	1371.735961914063	824.766845703125	48.59490585327148	1438.970092773438	658.5631713867188	967.314697265625	1285.872802734375	710.9485473632813	170.3553924560547	1420.172241210938	670.9659423828125	175.9240875244141	1388.248901367188	707.7255249023438	254.0373687744141	1435.96923828125	666.64453125	255.6339416503906	1401.966430664063	728.1124267578125	598.3009033203125	1432.756103515625	673.2091674804688	599.712158203125	1384.85107421875	725.4932250976563	708.9879150390625	1435.681762695313	675.24267578125	709.4843139648438	1388.938842773438	792.1719970703125	422.8882446289063	1375.532104492188	
115	0.76	722.8018188476563	98.38777160644531	1045.179565429688	732.1845703125	111.2288665771484	1132.3994140625	860.2725219726563	945.2694091796875	1126.303344726563	783.7586669921875	881.9578857421875	1054.9189453125	645.0205688476563	40.44754791259766	1088.127197265625	669.0787963867188	62.33380508422852	1047.29052734375	654.37255859375	88.02725219726563	1089.041748046875	754.62255859375	444.8974914550781	1027.917236328125	774.5642700195313	1007.326049804688	1065.243286132813	758.1032104492188	504.1171569824219	1032.842041015625	732.1397705078125	481.173828125	1164.865478515625	861.2012939453125	60.55974960327148	1127.3984375	865.5828247070313	70.38367462158203	1089.0380859375	828.0968627929688	52.8658561706543	1021.777099609375	663.849365234375	966.9494018554688	1184.251342773438	702.7340087890625	175.2910308837891	1039.625366210938	674.6561279296875	178.8743896484375	1087.71630859375	695.6472778320313	255.074462890625	1030.121826171875	669.8450927734375	259.29443359375	1077.793334960938	746.7723999023438	586.7673950195313	1030.163330078125	684.89794921875	592.7877197265625	1069.110107421875	755.6840209960938	696.3642578125	1029.4287109375	697.221923828125	701.6495361328125	1068.199340820313	802.7771606445313	428.3199768066406	1091.732299804688	714.634765625	101.1290740966797	1410.849243164063	737.6333618164063	122.5154190063477	1325.970581054688	844.9953002929688	949.5865478515625	1358.586059570313	765.6734008789063	887.8392333984375	1419.796508789063	639.9495849609375	41.45413970947266	1366.140258789063	668.7715454101563	64.8760986328125	1406.433715820313	652.224609375	92.26491546630859	1363.428588867188	742.4288330078125	450.1548461914063	1429.869750976563	760.3069458007813	1003.641418457031	1404.218505859375	742.9398193359375	513.4440307617188	1424.802124023438	730.4344482421875	485.7550354003906	1295.298706054688	855.4175415039063	61.31699371337891	1329.25341796875	862.590576171875	70.74515533447266	1371.737670898438	824.7656860351563	48.59915161132813	1438.9638671875	658.5873413085938	967.2852172851563	1285.871948242188	710.9442138671875	170.3562622070313	1420.177368164063	670.9786376953125	175.9293365478516	1388.248657226563	707.7333374023438	254.0359344482422	1435.969604492188	666.6508178710938	255.6368865966797	1401.969360351563	728.1621704101563	598.2972412109375	1432.757934570313	673.2394409179688	599.710205078125	1384.860961914063	725.5423583984375	708.986328125	1435.695190429688	675.2728271484375	709.49462890625	1388.965209960938	792.1927490234375	422.8888854980469	1375.539794921875	
116	0.7666666666666667	722.8101806640625	98.38922882080078	1045.180908203125	732.1824951171875	111.2415161132813	1132.399169921875	860.2716674804688	945.265625	1126.28955078125	783.7858276367188	881.9459228515625	1054.921630859375	645.017578125	40.44414138793945	1088.129028320313	669.072265625	62.33815383911133	1047.296142578125	654.3753051757813	88.02304840087891	1089.036499023438	754.6354370117188	444.8954772949219	1027.906494140625	774.5607299804688	1007.314636230469	1065.233764648438	758.1188354492188	504.1034545898438	1032.837524414063	732.1757202148438	481.1661682128906	1164.859741210938	861.193359375	60.57073974609375	1127.401977539063	865.58349609375	70.37179565429688	1089.039672851563	828.1007690429688	52.86733245849609	1021.771240234375	663.8440551757813	966.9312744140625	1184.236694335938	702.7422485351563	175.2892913818359	1039.617553710938	674.6609497070313	178.8755035400391	1087.716918945313	695.6572265625	255.0745239257813	1030.11279296875	669.853515625	259.2871704101563	1077.783203125	746.7845458984375	586.778076171875	1030.14453125	684.9165649414063	592.7930297851563	1069.106079101563	755.7217407226563	696.3651123046875	1029.405029296875	697.2515258789063	701.6494750976563	1068.185546875	802.7705078125	428.319580078125	1091.72412109375	714.6347045898438	101.1267623901367	1410.851684570313	737.6340942382813	122.5182037353516	1325.9765625	845.0059814453125	949.5947265625	1358.5830078125	765.733642578125	887.7498779296875	1419.519653320313	639.94189453125	41.45863342285156	1366.143432617188	668.7780151367188	64.86923217773438	1406.449096679688	652.2203979492188	92.27149200439453	1363.433349609375	742.462646484375	450.1461791992188	1429.862182617188	760.290283203125	1003.635375976563	1404.224487304688	742.9727783203125	513.4420776367188	1424.790283203125	730.4691772460938	485.74658203125	1295.289916992188	855.4188842773438	61.31479644775391	1329.251220703125	862.5772705078125	70.7513427734375	1371.744506835938	824.769775390625	48.59965133666992	1438.97314453125	658.5944213867188	967.258056640625	1285.86572265625	710.9583740234375	170.3538055419922	1420.16748046875	670.976806640625	175.9277496337891	1388.250366210938	707.7445068359375	254.0449676513672	1435.971435546875	666.6610107421875	255.6358795166016	1401.96533203125	728.2017822265625	598.3002319335938	1432.7568359375	673.2650756835938	599.7172241210938	1384.882568359375	725.5839233398438	708.9879150390625	1435.70361328125	675.3060302734375	709.4985961914063	1388.962768554688	792.2161865234375	422.86865234375	1375.52685546875	
